<?xml version="1.0" standalone="no"?><!DOCTYPE svg PUBLIC "-//W3C//DTD SVG 1.1//EN" "http://www.w3.org/Graphics/SVG/1.1/DTD/svg11.dtd"><svg t="1730136978893" class="icon" viewBox="0 0 1024 1024" version="1.1" xmlns="http://www.w3.org/2000/svg" p-id="5376" xmlns:xlink="http://www.w3.org/1999/xlink" width="200" height="200"><path d="M512 512m-384 0a384 384 0 1 0 768 0 384 384 0 1 0-768 0Z" p-id="5377" data-spm-anchor-id="a313x.search_index.0.i4.2a503a81iTU0Hg" class="" fill="#ffffff"></path><path d="M720 403.2l-211.2 246.4c-3.2 3.2-3.2 3.2-6.4 3.2 0 3.2-3.2 6.4-3.2 6.4-6.4 6.4-16 9.6-22.4 9.6-6.4 0-16-3.2-19.2-6.4l-144-124.8c-12.8-12.8-16-32-3.2-44.8 12.8-12.8 32-16 44.8-3.2l121.6 102.4 201.6-233.6c12.8-12.8 32-16 44.8-3.2 6.4 16 6.4 35.2-3.2 48z" p-id="5378" data-spm-anchor-id="a313x.search_index.0.i5.2a503a81iTU0Hg" class="" fill="#FE5F53"></path></svg>