<?xml version="1.0" standalone="no"?><!DOCTYPE svg PUBLIC "-//W3C//DTD SVG 1.1//EN" "http://www.w3.org/Graphics/SVG/1.1/DTD/svg11.dtd"><svg t="1729935815072" class="icon" viewBox="0 0 1183 1024" version="1.1" xmlns="http://www.w3.org/2000/svg" p-id="4774" xmlns:xlink="http://www.w3.org/1999/xlink" width="231.0546875" height="200"><path d="M1043.774764 50.332854l129.495907 388.551716v511.968002c0 20.574714-7.071558 37.91763-21.214674 51.99675s-31.51803 21.150678-52.124743 21.150678H73.339416c-20.63871 0-38.013624-7.03956-52.124742-21.150678C7.03956 988.770202 0 971.427286 0 950.820574v-511.968002L129.495907 49.212924c5.375664-14.591088 14.71908-26.654334 26.686332-35.293794l0.223986-0.15999c11.647272-8.575464 26.23836-13.727142 42.07737-13.727142h0.95994-0.063996 774.511593c16.030998 0 30.366102 4.767702 42.973314 14.303106 12.127242 9.055434 21.43866 21.27867 26.750328 35.453784l0.191988 0.543966z m-844.395225 22.910568L77.883132 438.88457h362.057372c0 40.381476 14.303106 74.87532 42.973314 103.449534s63.19605 42.845322 103.705518 42.845322c40.47747 0 75.03531-14.303106 103.673521-42.87732 28.670208-28.574214 42.973314-63.03606 42.973314-103.417536h362.057371L973.859134 73.243422H199.347541z m900.551715 877.577152V512.031998l-307.052809 1.151928c-15.263046 41.885382-41.629398 76.379226-79.067058 103.417536s-79.83501 40.573464-127.192051 40.573465-89.75439-13.535154-127.19205-40.573465A223.954003 223.954003 0 0 1 379.208299 512.031998h-305.900881v438.820574h1026.591838z" fill="#C6C8D1" p-id="4775"></path></svg>